<svg width="682" height="124" viewBox="0 0 682 124" fill="none" xmlns="http://www.w3.org/2000/svg">
<path d="M2.5 62.3415L60.5831 3.89077C62.1608 2.30304 64.7257 2.30956 66.2856 3.91489C71.9684 9.76347 84.9973 23.1472 94.0485 32.2494C103.238 41.4903 116.223 54.2887 121.752 59.7278C123.253 61.2043 123.343 63.5908 121.952 65.1705C102.299 87.4753 88.1558 96.4164 66.3973 120.4C64.8129 122.146 62.0709 122.203 60.4576 120.484C54.1273 113.736 39.4411 98.1275 32.8628 91.5076C24.352 82.943 7.33045 63.7303 7.33045 63.7303" stroke="#292929" stroke-width="4" stroke-linecap="round"/>
<path d="M88.918 62.3415L147.396 3.86357C148.972 2.28782 151.522 2.29399 153.08 3.88734C158.785 9.72134 171.923 23.1328 181.046 32.2494C190.289 41.4858 203.348 54.2761 208.917 59.7199C210.429 61.1984 210.52 63.5981 209.117 65.1806C189.336 87.4872 175.101 96.4274 153.192 120.43C151.61 122.164 148.881 122.22 147.27 120.512C140.914 113.781 126.102 98.137 119.473 91.5076C110.908 82.943 93.779 63.7303 93.779 63.7303" stroke="#292929" stroke-width="4" stroke-linecap="round"/>
<path d="M177.65 62.3415L236.128 3.86357C237.704 2.28782 240.255 2.29399 241.813 3.88734C247.517 9.72134 260.656 23.1328 269.778 32.2494C279.021 41.4858 292.081 54.2761 297.649 59.7199C299.162 61.1984 299.252 63.5981 297.849 65.1806C278.068 87.4872 263.833 96.4274 241.925 120.43C240.342 122.164 237.614 122.22 236.002 120.512C229.647 113.781 214.835 98.137 208.205 91.5076C199.641 82.943 182.511 63.7303 182.511 63.7303" stroke="#292929" stroke-width="4" stroke-linecap="round"/>
<path d="M339.686 62.3415L398.163 3.86357C399.739 2.28782 402.29 2.29399 403.848 3.88734C409.552 9.72134 422.691 23.1328 431.813 32.2494C441.056 41.4858 454.116 54.2761 459.685 59.7199C461.197 61.1984 461.287 63.5981 459.884 65.1806C440.104 87.4872 425.868 96.4274 403.96 120.43C402.377 122.164 399.649 122.22 398.037 120.512C391.682 113.781 376.87 98.137 370.241 91.5076C361.676 82.943 344.547 63.7303 344.547 63.7303" stroke="#292929" stroke-width="4" stroke-linecap="round"/>
<path d="M412.215 62.3415L470.298 3.89077C471.876 2.30304 474.441 2.30956 476 3.91489C481.683 9.76347 494.712 23.1472 503.763 32.2494C512.952 41.4903 525.938 54.2887 531.467 59.7278C532.968 61.2043 533.058 63.5908 531.666 65.1705C512.014 87.4753 497.871 96.4164 476.112 120.4C474.528 122.146 471.786 122.203 470.172 120.484C463.842 113.736 449.156 98.1275 442.578 91.5076C434.067 82.943 417.045 63.7303 417.045 63.7303" stroke="#292929" stroke-width="4" stroke-linecap="round"/>
<path d="M573.924 58.5587C572.819 58.5587 571.924 59.4541 571.924 60.5587C571.924 61.6633 572.819 62.5587 573.924 62.5587V58.5587ZM636.744 61.9729C637.525 61.1919 637.525 59.9256 636.744 59.1445L624.016 46.4166C623.235 45.6355 621.968 45.6355 621.187 46.4166C620.406 47.1976 620.406 48.464 621.187 49.245L632.501 60.5587L621.187 71.8724C620.406 72.6535 620.406 73.9198 621.187 74.7009C621.968 75.4819 623.235 75.4819 624.016 74.7009L636.744 61.9729ZM573.924 62.5587H635.329V58.5587H573.924V62.5587Z" fill="#292929"/>
<circle cx="635.099" cy="62.1747" r="16.6987" stroke="#292929" stroke-width="4"/>
<circle cx="635.098" cy="62.1746" r="30.5496" stroke="#292929" stroke-width="4"/>
<circle cx="635.1" cy="62.1747" r="44.4005" stroke="#292929" stroke-width="4"/>
</svg>
