<?xml version="1.0" encoding="utf-8"?>
<!-- Generator: Adobe Illustrator 16.0.0, SVG Export Plug-In . SVG Version: 6.00 Build 0)  -->
<!DOCTYPE svg PUBLIC "-//W3C//DTD SVG 1.1//EN" "http://www.w3.org/Graphics/SVG/1.1/DTD/svg11.dtd">
<svg version="1.1" id="Capa_1" xmlns="http://www.w3.org/2000/svg" xmlns:xlink="http://www.w3.org/1999/xlink" x="0px" y="0px"
	 width="400px" height="400px" viewBox="15.059 15.059 400 400" enable-background="new 15.059 15.059 400 400"
	 xml:space="preserve">
<g>
	<path id="Dribbble" fill="#FFFFFF" d="M215.05,15.059C104.591,15.067,15.059,104.605,15.059,215.067
		c0,110.443,89.533,199.992,199.992,199.992c110.459,0,199.996-89.549,200.008-199.992C415.046,104.605,325.51,15.067,215.05,15.059
		z M337.593,118.757c19.513,24.779,31.731,55.462,33.273,88.969c-22.579-4.792-43.912-7.125-63.8-7.125v-0.005h-0.146
		c-16.012,0-31.038,1.454-45.201,3.966c-3.44-8.436-6.931-16.539-10.445-24.299C282.814,166.429,313.09,146.729,337.593,118.757z
		 M215.05,59.028c36.805,0,70.569,12.868,97.3,34.289c-20.456,24.49-47.456,42.227-76.624,54.75
		c-20.495-39.631-40.298-67.982-53.836-85.315C192.606,60.374,203.667,59.028,215.05,59.028z M146.131,75.293
		c10.831,12.792,32.515,40.931,55.675,84.863c-47.103,14.021-94.533,17.315-123.232,17.307c-0.818,0-1.627,0-2.422-0.008h-0.026
		c-4.833,0-8.989-0.076-12.459-0.182C74.864,132.472,105.556,95.369,146.131,75.293z M59.015,215.067
		c0-0.734,0.026-1.479,0.069-2.248c4.456,0.165,10.169,0.306,17.047,0.306h0.039c31.365-0.205,86.129-2.825,141.628-20.347
		c3.025,6.615,6.021,13.502,8.979,20.653c-37.062,12.396-66.252,32.144-87.843,51.81c-20.785,18.932-34.828,37.683-43.033,50.2
		C72.942,288.257,59.027,253.323,59.015,215.067z M215.05,371.11c-34.724,0-66.729-11.484-92.693-30.754
		c5.519-9.09,17.351-26.537,36.192-44.566c19.386-18.577,46.146-37.701,81.085-49.08c11.876,33.291,22.621,71.345,30.808,114.184
		C253.197,367.459,234.563,371.11,215.05,371.11z M303.362,343.402c-7.917-38.741-17.869-73.678-28.798-104.854
		c10.134-1.453,20.772-2.274,32.001-2.274h0.403h0.026h0.026c18.61,0,39.062,2.313,61.24,7.353
		C360.584,284.885,336.687,320.419,303.362,343.402z"/>
</g>
</svg>
