<?xml version="1.0" encoding="utf-8"?>
<!-- Generator: Adobe Illustrator 16.0.0, SVG Export Plug-In . SVG Version: 6.00 Build 0)  -->
<!DOCTYPE svg PUBLIC "-//W3C//DTD SVG 1.1//EN" "http://www.w3.org/Graphics/SVG/1.1/DTD/svg11.dtd">
<svg version="1.1" id="Capa_1" xmlns="http://www.w3.org/2000/svg" xmlns:xlink="http://www.w3.org/1999/xlink" x="0px" y="0px"
	 width="400px" height="400px" viewBox="56 56 400 400" enable-background="new 56 56 400 400" xml:space="preserve">
<g>
	<path fill="#FFFFFF" d="M256,56C145.543,56,56,145.543,56,256s89.543,200,200,200s200-89.543,200-200S366.457,56,256,56z
		 M374.771,374.771c-15.438,15.437-33.403,27.552-53.402,36.011c-5.079,2.148-10.237,4.034-15.469,5.661v-29.975
		c0-15.756-5.403-27.344-16.211-34.766c6.771-0.65,12.988-1.562,18.652-2.734s11.654-2.865,17.969-5.078
		c6.315-2.213,11.979-4.85,16.992-7.91c5.014-3.061,9.831-7.031,14.453-11.914c4.623-4.883,8.496-10.416,11.621-16.602
		s5.6-13.607,7.422-22.266c1.823-8.658,2.734-18.197,2.734-28.613c0-20.182-6.575-37.37-19.727-51.562
		c5.99-15.625,5.339-32.617-1.953-50.977l-4.883-0.586c-3.385-0.391-9.473,1.042-18.262,4.297s-18.652,8.594-29.59,16.016
		c-15.494-4.297-31.575-6.445-48.242-6.445c-16.796,0-32.812,2.148-48.046,6.445c-6.901-4.688-13.444-8.561-19.629-11.621
		s-11.133-5.143-14.844-6.25s-7.162-1.791-10.352-2.051s-5.241-0.326-6.152-0.195s-1.562,0.26-1.953,0.391
		c-7.292,18.49-7.943,35.482-1.953,50.977c-13.151,14.193-19.727,31.38-19.727,51.562c0,10.416,0.912,19.955,2.734,28.613
		s4.297,16.08,7.422,22.266s6.999,11.719,11.621,16.602s9.44,8.854,14.453,11.914s10.677,5.697,16.992,7.91
		s12.305,3.906,17.969,5.078s11.881,2.084,18.652,2.734c-10.677,7.291-16.016,18.881-16.016,34.766v30.559
		c-5.897-1.755-11.711-3.83-17.422-6.245c-19.998-8.459-37.964-20.574-53.401-36.011c-15.436-15.438-27.552-33.403-36.01-53.402
		c-8.748-20.686-13.185-42.68-13.185-65.369c0-22.69,4.437-44.684,13.187-65.371c8.459-19.998,20.574-37.964,36.01-53.401
		c15.436-15.437,33.403-27.552,53.401-36.01c20.688-8.75,42.681-13.187,65.371-13.187c22.689,0,44.684,4.437,65.372,13.187
		c19.998,8.459,37.964,20.574,53.4,36.01c15.438,15.436,27.554,33.403,36.011,53.401c8.748,20.688,13.186,42.681,13.186,65.371
		c0,22.689-4.438,44.684-13.187,65.371C402.324,341.368,390.207,359.336,374.771,374.771z"/>
</g>
</svg>
