<?xml version="1.0" encoding="utf-8"?>
<!-- Generator: Adobe Illustrator 16.0.0, SVG Export Plug-In . SVG Version: 6.00 Build 0)  -->
<!DOCTYPE svg PUBLIC "-//W3C//DTD SVG 1.1//EN" "http://www.w3.org/Graphics/SVG/1.1/DTD/svg11.dtd">
<svg version="1.1" id="Capa_1" xmlns="http://www.w3.org/2000/svg" xmlns:xlink="http://www.w3.org/1999/xlink" x="0px" y="0px"
	 width="400px" height="400px" viewBox="15.059 15.059 400 400" enable-background="new 15.059 15.059 400 400"
	 xml:space="preserve">
<g>
	<path id="LinkedIn__x28_alt_x29_" fill="#FFFFFF" d="M385.521,15.059H44.616c-16.324,0-29.555,12.827-29.555,28.659v342.669
		c0,15.834,13.235,28.672,29.555,28.672h340.905c16.32,0,29.536-12.848,29.536-28.672V43.718
		C415.057,27.891,401.841,15.059,385.521,15.059z M136.328,349.885H75.892V169.292h60.437V349.885z M106.116,144.619h-0.406
		c-20.267,0-33.405-13.86-33.405-31.213c0-17.702,13.524-31.187,34.192-31.187c20.67,0,33.386,13.481,33.787,31.187
		C140.284,130.762,127.172,144.619,106.116,144.619z M354.184,349.885h-60.417v-96.623c0-24.278-8.755-40.847-30.604-40.847
		c-16.714,0-26.635,11.177-30.992,21.968c-1.615,3.854-2.015,9.244-2.015,14.628v100.872H169.75c0,0,0.791-163.656,0-180.594h60.415
		v25.603c8.021-12.302,22.353-29.852,54.436-29.852c39.767,0,69.583,25.797,69.583,81.293V349.885L354.184,349.885z
		 M229.775,195.465c0.104-0.169,0.246-0.374,0.39-0.571v0.571H229.775z"/>
</g>
</svg>
