<?xml version="1.0" encoding="utf-8"?>
<!-- Generator: Adobe Illustrator 16.0.0, SVG Export Plug-In . SVG Version: 6.00 Build 0)  -->
<!DOCTYPE svg PUBLIC "-//W3C//DTD SVG 1.1//EN" "http://www.w3.org/Graphics/SVG/1.1/DTD/svg11.dtd">
<svg version="1.1" id="Capa_1" xmlns="http://www.w3.org/2000/svg" xmlns:xlink="http://www.w3.org/1999/xlink" x="0px" y="0px"
	 width="400px" height="400px" viewBox="200 0 400 400" enable-background="new 200 0 400 400" xml:space="preserve">
<g>
	<path fill="#FFFFFF" d="M600,75.986c-14.722,6.523-30.519,10.948-47.115,12.923c16.947-10.147,29.918-26.244,36.067-45.366
		c-15.896,9.397-33.443,16.222-52.142,19.921c-14.972-15.972-36.267-25.92-59.889-25.92c-45.316,0-82.06,36.743-82.06,82.035
		c0,6.423,0.726,12.697,2.125,18.696c-68.187-3.425-128.649-36.093-169.117-85.733c-7.074,12.099-11.098,26.194-11.098,41.242
		c0,28.47,14.497,53.589,36.492,68.286c-13.446-0.449-26.094-4.149-37.167-10.298v1.024c0,39.742,28.295,72.91,65.812,80.459
		c-6.874,1.85-14.122,2.875-21.621,2.875c-5.3,0-10.423-0.525-15.447-1.524c10.448,32.618,40.743,56.339,76.636,56.989
		c-28.069,21.995-63.462,35.068-101.905,35.068c-6.624,0-13.147-0.4-19.571-1.125c36.318,23.321,79.437,36.917,125.777,36.917
		c150.945,0,233.455-125.024,233.455-233.454l-0.274-10.623C575.08,106.881,589.026,92.434,600,75.986z"/>
</g>
</svg>
