<?xml version="1.0" encoding="utf-8"?>
<!-- Generator: Adobe Illustrator 16.0.0, SVG Export Plug-In . SVG Version: 6.00 Build 0)  -->
<!DOCTYPE svg PUBLIC "-//W3C//DTD SVG 1.1//EN" "http://www.w3.org/Graphics/SVG/1.1/DTD/svg11.dtd">
<svg version="1.1" id="Livello_1" xmlns="http://www.w3.org/2000/svg" xmlns:xlink="http://www.w3.org/1999/xlink" x="0px" y="0px"
	 width="1113px" height="141px" viewBox="0 0 1113 141" enable-background="new 0 0 1113 141" xml:space="preserve">
<g id="BOB______APPLE" opacity="0.5">
	<g>
		<path d="M5.4,128.398c13.2-0.602,16.8-3.602,16.8-15.601V31.8c0-12-3.6-15-16.8-15.6V8.4H47c18.6,0,31.199,0.8,37.999,3.6
			c13.4,5.6,20.6,15,20.6,26.799c0,13.8-10,25-28.2,29.4c22.6,3.8,35.199,17.199,35.199,34.6c0,11.6-6,21.6-16.8,27.799
			c-7.4,4.2-18.399,5.602-33.599,5.602H5.4V128.398z M58.599,65.199c14.6,0,22.6-7.8,22.6-22.2c0-17.4-7.8-26.8-21.2-26.8
			c-8,0-12,4.2-12,12.2v26C47.999,61.999,50.999,65.199,58.599,65.199z M60.399,128.398c18.2,0,26.6-8.801,26.6-27.601
			c0-17.8-10.4-27.8-27.799-27.8c-7.8,0-11.2,2.398-11.2,8.6v31.399C47.999,124.198,50.999,128.398,60.399,128.398z"/>
		<path d="M139.999,120.998c-14.4-12.199-22.2-29.398-22.2-48.6c0-19.399,8-36.799,22.399-49c12.6-10.6,28-16.4,45-16.4
			s32.6,5.8,45.199,16.4c14.4,12.2,22.4,29.599,22.4,49c0,19.199-7.8,36.399-22.2,48.6c-12.8,11-28.399,16.6-45.399,16.6
			S152.798,131.998,139.999,120.998z M224.197,72.398c0-36.6-15.8-57.398-39-57.398c-23.2,0-38.799,20.6-38.799,57.398
			c0,36.6,15.6,57.398,38.799,57.398C208.396,129.797,224.197,108.998,224.197,72.398z"/>
		<path d="M244.197,128.398c13.2-0.602,16.8-3.602,16.8-15.601V31.8c0-12-3.6-15-16.8-15.6V8.4h41.599c18.6,0,31.2,0.8,38,3.6
			c13.4,5.6,20.6,15,20.6,26.799c0,13.8-10,25-28.2,29.4c22.6,3.8,35.199,17.199,35.199,34.6c0,11.6-6,21.6-16.8,27.799
			c-7.4,4.2-18.399,5.602-33.599,5.602h-56.799L244.197,128.398L244.197,128.398z M297.396,65.199c14.6,0,22.6-7.8,22.6-22.2
			c0-17.4-7.8-26.8-21.2-26.8c-8,0-12,4.2-12,12.2v26C286.796,61.999,289.796,65.199,297.396,65.199z M299.196,128.398
			c18.2,0,26.6-8.801,26.6-27.601c0-17.8-10.4-27.8-27.799-27.8c-7.8,0-11.2,2.398-11.2,8.6v31.399
			C286.796,124.198,289.796,128.398,299.196,128.398z"/>
		<path d="M551.194,128.798c8.399-1,14.6-6.198,18.398-15.198L601.794,37c1.999-4.8,3.199-9.2,3.199-14l11.601-14.6h6.399
			l42.199,108.2c3,7.398,8.399,11.198,17.8,12.198v7.4h-59.999v-7.4c10-0.6,14.2-1.8,14.2-7.399c0-1-0.4-2.799-1.2-5.199l-9-25.6
			h-37.999l-7.4,18.398c-1.6,4-2.4,7.8-2.4,10.8c0,6,3.602,8.4,11.802,9v7.4h-39.8L551.194,128.798L551.194,128.798z
			 M622.993,82.799L608.193,42l-15.801,40.799H622.993z"/>
		<path d="M747.393,128.398v7.8h-60.8v-7.8c12.8-0.4,17-3.801,17-15.601V31.8c0-11.8-4.2-15.2-17-15.6V8.4h52.601
			c35.398,0,52.999,11.4,52.999,34.799c0,23.6-19,38.6-53.199,38.6c-2,0-4-0.199-6-0.199v-5.801c21.8-1.398,30.6-10.2,30.6-30.199
			c0-19.4-7.6-29.2-21.6-29.2c-9,0-12.601,4.2-12.601,13.4v82.999C729.393,125.198,733.192,127.998,747.393,128.398z"/>
		<path d="M846.19,128.398v7.8H785.39v-7.8c12.802-0.4,17-3.801,17-15.601V31.8c0-11.8-4.198-15.2-17-15.6V8.4h52.601
			c35.398,0,52.999,11.4,52.999,34.799c0,23.6-18.999,38.6-53.199,38.6c-2,0-4-0.199-6-0.199v-5.801
			c21.8-1.398,30.6-10.2,30.6-30.199c0-19.4-7.6-29.2-21.6-29.2c-9,0-12.6,4.2-12.6,13.4v82.999
			C828.19,125.198,831.99,127.998,846.19,128.398z"/>
		<path d="M926.988,109.6c0,13.6,0.399,18.799,13.6,18.799h17c16.6,0,24.399-8.199,34.8-28.199h6.601l-5,36H884.189v-7.801
			c12.999-0.399,16.8-3.601,16.8-15.6V31.8c0-12-3.802-15.2-16.8-15.6V8.4h60.799v7.8c-13.8,0.2-18,3.2-18,15.6v75.398V109.6
			L926.988,109.6z"/>
		<path d="M998.986,128.398c13-0.4,16.8-3.602,16.8-15.601V31.8c0-12-3.8-15.2-16.8-15.6V8.4h96.398l7.199,23.2l-5.8,3
			c-9-13.4-14.601-18.4-27.601-18.4h-19.198c-8,0-8.2,2-8.2,10v33.399c0,3.8,1.4,4.8,5.6,4.8h11c10.801,0,16.2-4.8,17.801-16h7.399
			v43h-7.399c-2-13.601-6.801-19.199-18-19.199h-10.801c-5.398,0-5.6,1.8-5.6,7.6v34.999c0,10,3,13.601,12.6,13.601h21.801
			c12,0,20.6-8.601,28.398-25.799h5.8l-5,33.6H998.986V128.398z"/>
	</g>
</g>
<g id="AND_x0D_THE" opacity="0.5">
	<g>
		<path d="M362.24,62.791c3.696-0.44,6.424-2.728,8.096-6.688L384.503,22.4c0.88-2.112,1.408-4.048,1.408-6.16l5.104-6.424h2.816
			l18.567,47.606c1.32,3.256,3.696,4.928,7.832,5.368v3.256h-26.399V62.79c4.4-0.264,6.248-0.792,6.248-3.256
			c0-0.44-0.176-1.232-0.528-2.288l-3.959-11.264h-16.72l-3.256,8.096c-0.704,1.76-1.056,3.432-1.056,4.752
			c0,2.64,1.584,3.696,5.192,3.959v3.256H362.24V62.791z M393.831,42.552L387.319,24.6l-6.952,17.952H393.831z"/>
		<path d="M463.614,13.073V9.817h21.56v3.256c-6.775,0.264-8.8,1.408-8.8,7.04v45.935h-2.728l-41.096-42.062v31.767
			c0,5.368,2.024,6.688,8.448,7.04v3.256h-20.24v-3.256c5.632-0.352,7.744-1.848,7.744-7.04V23.896
			c0-7.48-2.464-10.648-9.328-10.824V9.817h15.487l37.575,38.015v-27.72C472.238,14.48,470.214,13.336,463.614,13.073z"/>
		<path d="M488.607,62.615c5.72-0.176,7.392-1.584,7.392-6.864V20.112c0-5.28-1.672-6.688-7.392-6.864V9.817h20.854
			c9.855,0,18.215,0.44,26.223,5.104c9.24,5.368,14.167,13.552,14.167,23.056c0,8.448-3.695,15.487-11.088,21.119
			c-7.919,6.072-16.807,6.952-28.158,6.952h-21.999L488.607,62.615L488.607,62.615z M507.438,55.751
			c0,5.808,2.112,6.864,9.328,6.864c13.023,0,20.592-8.448,20.592-23.847c0-15.928-8.713-25.52-21.561-25.52
			c-6.424,0-8.359,1.32-8.359,6.864V55.751L507.438,55.751z"/>
		<path d="M403.855,133.615v3.432h-26.751v-3.432c5.632-0.176,7.48-1.584,7.48-6.864V89.439c0-3.432-0.176-3.432-3.784-3.432h-3.872
			c-4.664,0-8.184,3.08-12.056,9.239h-3.256l3.167-15.047h3.168c2.64,2.11,5.544,2.286,9.328,2.286h32.735
			c0,0,3.168-0.176,6.072-2.286h3.08l-0.44,15.047h-3.168c-2.816-6.336-6.072-9.239-11.352-9.239h-4.928
			c-2.728,0-3.256,0.792-3.256,3.872v36.87C396.023,132.207,397.607,133.439,403.855,133.615z"/>
		<path d="M442.135,110.736v16.015c0,5.456,1.849,6.776,7.92,6.864v3.432h-26.751v-3.432c5.721-0.176,7.393-1.584,7.393-6.864
			v-35.64c0-5.278-1.672-6.688-7.393-6.862v-3.433h26.751v3.433c-6.071,0.088-7.92,1.407-7.92,6.862V106.6h30.096V91.111
			c0-5.455-1.849-6.774-7.921-6.862v-3.433h26.751v3.433c-5.72,0.176-7.392,1.584-7.392,6.862v35.64c0,5.28,1.672,6.688,7.392,6.864
			v3.432H464.31v-3.432c6.072-0.088,7.921-1.408,7.921-6.864v-16.015H442.135L442.135,110.736z"/>
		<path d="M495.815,133.615c5.72-0.176,7.392-1.584,7.392-6.864v-35.64c0-5.278-1.672-6.688-7.392-6.862v-3.433h42.415l3.166,10.207
			l-2.552,1.32c-3.96-5.896-6.424-8.096-12.144-8.096h-8.448c-3.52,0-3.608,0.88-3.608,4.398v14.695
			c0,1.672,0.616,2.112,2.465,2.112h4.84c4.752,0,7.128-2.112,7.832-7.04h3.256v18.92h-3.256c-0.88-5.984-2.992-8.448-7.92-8.448
			h-4.752c-2.376,0-2.465,0.792-2.465,3.345v15.399c0,4.399,1.32,5.983,5.545,5.983h9.592c5.279,0,9.062-3.784,12.496-11.352h2.552
			l-2.2,14.782h-46.814L495.815,133.615L495.815,133.615z"/>
	</g>
</g>
</svg>
