<?xml version="1.0" encoding="utf-8"?>
<!-- Generator: Adobe Illustrator 16.0.0, SVG Export Plug-In . SVG Version: 6.00 Build 0)  -->
<!DOCTYPE svg PUBLIC "-//W3C//DTD SVG 1.1//EN" "http://www.w3.org/Graphics/SVG/1.1/DTD/svg11.dtd">
<svg version="1.1" id="Livello_1" xmlns="http://www.w3.org/2000/svg" xmlns:xlink="http://www.w3.org/1999/xlink" x="0px" y="0px"
	 width="551.583px" height="133.089px" viewBox="0 0 551.583 133.089" enable-background="new 0 0 551.583 133.089"
	 xml:space="preserve">
<g enable-background="new    ">
	<path d="M87.131,94.976c0,10.441-4.083,19.088-12.247,25.939c-8.165,6.854-18.779,10.279-31.842,10.279
		c-10.119,0-18.872-2.918-26.26-8.754C9.394,116.607,5.7,110.263,5.7,103.41c0-1.07,0.213-1.861,0.643-2.369
		c0.428-0.51,1.044-0.764,1.847-0.764c0.535,0,1.004,0.24,1.405,0.723s0.603,1.045,0.603,1.688c0,0.213-0.028,0.455-0.081,0.723
		c-0.054,0.268-0.08,0.48-0.08,0.643c0,6.211,3.252,11.711,9.757,16.502c6.505,4.793,14.361,7.188,23.57,7.188
		c9.368,0,16.811-2.289,22.325-6.865c5.514-4.578,8.272-10.748,8.272-18.512c0-5.086-1.554-9.648-4.658-13.691
		c-3.105-4.043-8.941-8.633-17.507-13.773c-0.857-0.482-2.115-1.205-3.774-2.168C30.033,62.131,21.039,50.701,21.039,38.44
		c0-9.155,3.64-16.931,10.922-23.329c7.28-6.397,16.194-9.597,26.742-9.597c4.015,0,7.188,0.321,9.516,0.964
		c2.329,0.643,3.493,1.526,3.493,2.65c-0.054,0.536-0.241,0.964-0.562,1.285s-0.75,0.509-1.285,0.562
		c-0.108,0-0.482-0.106-1.125-0.321c-3.16-1.124-6.505-1.687-10.038-1.687c-7.764,0-14.148,2.088-19.153,6.264
		c-5.007,4.176-7.509,9.504-7.509,15.981c0,7.764,7.736,16.169,23.208,25.217c3.212,1.874,5.674,3.32,7.389,4.336
		c9.529,5.729,15.993,11.097,19.394,16.101C85.431,81.875,87.131,87.91,87.131,94.976z"/>
</g>
<g enable-background="new    ">
	<path d="M112.374,94.197l-12.23,29.404c-0.304,0.738-0.673,1.713-1.106,2.928c-0.738,2.037-1.475,3.057-2.211,3.057
		c-0.521,0-0.966-0.152-1.334-0.455c-0.369-0.305-0.553-0.672-0.553-1.105c0-0.391,0.347-1.322,1.041-2.797
		c0.52-1.129,0.932-2.061,1.236-2.799l11.839-28.232h-5.854c-0.868,0-1.8,0.023-2.797,0.064c-0.998,0.045-1.583,0.066-1.756,0.066
		c-0.868-0.043-1.475-0.184-1.821-0.424c-0.348-0.238-0.521-0.639-0.521-1.203c0-0.52,0.163-0.889,0.488-1.105
		s0.943-0.326,1.854-0.326c0.086,0,0.628,0.023,1.626,0.066c0.997,0.043,1.973,0.064,2.927,0.064h7.091l25.045-59.588v-0.065
		c0.867-1.908,1.799-2.862,2.797-2.862c0.433,0,0.855,0.206,1.268,0.618c0.412,0.413,0.791,1.008,1.139,1.789l32.201,79.429
		c1.171,2.82,2.396,5.715,3.675,8.686c1.279,2.971,2.635,6.018,4.066,9.139h-15.353c-0.26-1.473-1.084-3.924-2.472-7.35
		c-0.434-1.041-0.759-1.844-0.976-2.408l-9.823-24.59H112.374z M113.61,91.4h37.146l-18.215-45.212L113.61,91.4z"/>
	<path d="M202.277,31.161c-0.217,4.857-0.38,9.302-0.488,13.336c-0.109,4.033-0.163,7.806-0.163,11.318v69.932h29.859
		c1.387,0,2.916-0.043,4.586-0.131c1.669-0.086,2.678-0.129,3.025-0.129c0.824,0,1.399,0.129,1.724,0.391
		c0.325,0.26,0.488,0.715,0.488,1.365c0,0.564-0.152,0.967-0.455,1.203c-0.304,0.238-0.89,0.357-1.757,0.357
		c-0.347,0-1.355-0.043-3.025-0.129c-1.67-0.088-3.199-0.131-4.586-0.131H187.38c0.216-4.639,0.379-8.986,0.488-13.043
		c0.108-4.055,0.163-7.926,0.163-11.611V55.815c0-3.686-0.055-7.556-0.163-11.611c-0.109-4.055-0.271-8.402-0.488-13.043H202.277z"
		/>
	<path d="M263.296,31.161c-0.217,4.857-0.38,9.302-0.488,13.336c-0.109,4.033-0.163,7.806-0.163,11.318v69.932h29.859
		c1.388,0,2.916-0.043,4.586-0.131c1.669-0.086,2.678-0.129,3.024-0.129c0.824,0,1.399,0.129,1.725,0.391
		c0.325,0.26,0.488,0.715,0.488,1.365c0,0.564-0.152,0.967-0.455,1.203c-0.305,0.238-0.891,0.357-1.758,0.357
		c-0.347,0-1.355-0.043-3.024-0.129c-1.67-0.088-3.198-0.131-4.586-0.131h-44.106c0.216-4.639,0.379-8.986,0.488-13.043
		c0.108-4.055,0.163-7.926,0.163-11.611V55.815c0-3.686-0.055-7.556-0.163-11.611c-0.109-4.055-0.271-8.402-0.488-13.043H263.296z"
		/>
	<path d="M341.295,103.89c0,4.467,0.043,8.738,0.13,12.814c0.087,4.078,0.217,8.025,0.391,11.84h-14.767
		c0.216-4.684,0.379-9.041,0.487-13.074c0.108-4.035,0.163-7.895,0.163-11.58v-0.521L296.929,42.35
		c-0.478-1.041-1.247-2.449-2.31-4.229c-1.062-1.777-2.504-4.098-4.326-6.96h16.199c0.692,1.908,1.311,3.535,1.854,4.879
		c0.541,1.345,1.051,2.472,1.529,3.383l29.013,57.833l29.729-61.281c0.347-0.737,0.758-1.713,1.236-2.928
		c0.736-1.863,1.474-2.797,2.211-2.797c0.391,0,0.759,0.13,1.106,0.391c0.347,0.26,0.521,0.563,0.521,0.91
		c0,0.348-0.391,1.236-1.172,2.667c-0.607,1.129-1.105,2.104-1.496,2.928l-29.729,61.67V103.89z"/>
</g>
<g enable-background="new    ">
	<path d="M439.729,128.544c0.268-5.729,0.469-11.094,0.603-16.102c0.133-5.004,0.2-9.783,0.2-14.334V38.762
		c0-4.55-0.067-9.328-0.2-14.334c-0.134-5.005-0.335-10.373-0.603-16.102h25.137c13.652,0,24.198,2.73,31.641,8.191
		c7.441,5.461,11.162,13.198,11.162,23.209c0,3.212-0.562,6.304-1.686,9.275c-1.125,2.972-2.758,5.742-4.899,8.312
		c6.585,3.694,11.551,8.259,14.897,13.693c3.345,5.434,5.02,11.684,5.02,18.752c0,11.992-4.177,21.455-12.528,28.389
		c-8.353,6.934-19.864,10.398-34.532,10.398H439.729z M457.317,125.091h16.623c13.331,0,23.877-3.092,31.641-9.275
		c7.763-6.184,11.645-14.494,11.645-24.936c0-7.174-1.514-13.291-4.537-18.35c-3.025-5.059-7.723-9.301-14.094-12.729
		c-2.356,2.196-5.113,3.896-8.271,5.1c-3.16,1.205-6.479,1.808-9.958,1.808c-3.854,0-7.015-0.695-9.477-2.088
		c-2.463-1.392-3.694-3.159-3.694-5.301c0-2.462,1.165-4.363,3.494-5.702c2.328-1.337,5.607-2.007,9.838-2.007
		c2.621,0,5.34,0.321,8.15,0.963c2.811,0.643,5.902,1.687,9.275,3.133c1.98-2.249,3.439-4.645,4.377-7.188
		c0.936-2.543,1.405-5.474,1.405-8.794c0-8.726-3.226-15.592-9.677-20.599c-6.453-5.005-15.353-7.509-26.702-7.509h-10.038V125.091z
		 M495.301,58.356c-2.945-1.177-5.608-2.02-7.99-2.529c-2.383-0.509-4.645-0.763-6.785-0.763c-3.16,0-5.569,0.335-7.229,1.004
		c-1.66,0.67-2.489,1.646-2.489,2.931c0,1.232,0.923,2.249,2.771,3.052s4.322,1.205,7.428,1.205c2.517,0,4.979-0.414,7.389-1.245
		C490.804,61.182,493.106,59.963,495.301,58.356z"/>
</g>
</svg>
