<svg width="46" height="44" viewBox="0 0 46 44" fill="none" xmlns="http://www.w3.org/2000/svg">
<path d="M3 21.5H46" stroke="#FEFEFE" stroke-width="3"/>
<path d="M24.0607 3.06066C24.6464 2.47487 24.6464 1.52513 24.0607 0.93934C23.4749 0.353553 22.5251 0.353553 21.9393 0.93934L24.0607 3.06066ZM2.43934 20.4393L1.37868 21.5L3.5 23.6213L4.56066 22.5607L2.43934 20.4393ZM21.9393 0.93934L2.43934 20.4393L4.56066 22.5607L24.0607 3.06066L21.9393 0.93934Z" fill="#FEFEFE"/>
<path d="M21.9393 42.0607C22.5251 42.6464 23.4749 42.6464 24.0607 42.0607C24.6464 41.4749 24.6464 40.5251 24.0607 39.9393L21.9393 42.0607ZM24.0607 39.9393L4.56066 20.4393L2.43934 22.5607L21.9393 42.0607L24.0607 39.9393Z" fill="#FEFEFE"/>
</svg>
